<svg viewBox="0 0 120 120" xmlns:xlink="http://www.w3.org/1999/xlink" xmlns="http://www.w3.org/2000/svg"><path d="M16824.065-772.704a879.2 879.2 0 0 1-879.201 879.2 879.2 879.2 0 0 1-879.2-879.2 879.2 879.2 0 0 1 879.2-879.2 879.2 879.2 0 0 1 879.201 879.2z" style="opacity:1;fill:#c6ebf7;fill-opacity:1;stroke:none;stroke-width:26.39999962;stroke-linecap:round;stroke-miterlimit:4;stroke-dasharray:none;stroke-dashoffset:0;stroke-opacity:1" transform="translate(-937.12 108.502) scale(.06253)"/><path d="M16539.799-767.842a751.83 751.83 0 0 1-751.829 751.83 751.83 751.83 0 0 1-751.83-751.83 751.83 751.83 0 0 1 751.83-751.83 751.83 751.83 0 0 1 751.829 751.83z" style="opacity:1;fill:#fbd12f;fill-opacity:1;stroke:none;stroke-width:26.39999962;stroke-linecap:round;stroke-miterlimit:4;stroke-dasharray:none;stroke-dashoffset:0;stroke-opacity:1" transform="matrix(.05 0 0 .05 -729.434 98.574)"/><g style="font-style:normal;font-weight:400;font-size:475.38482666px;line-height:100%;font-family:sans-serif;text-align:center;letter-spacing:0;word-spacing:0;text-anchor:middle;fill:#e40001;fill-opacity:1;stroke:none;stroke-width:1px;stroke-linecap:butt;stroke-linejoin:miter;stroke-opacity:1"><path style="font-style:normal;font-variant:normal;font-weight:500;font-stretch:normal;line-height:100%;font-family:Ubuntu;-inkscape-font-specification:'Ubuntu Medium';text-align:center;text-anchor:middle;fill:#e40001;fill-opacity:1" d="M15174.166-727.96q0 38.031 18.065 59.899 18.064 21.392 49.915 21.392 13.786 0 23.294-.95 9.983-1.427 16.163-2.853v-142.616q-7.606-5.229-20.442-9.507-12.36-4.754-26.621-4.754-31.376 0-46.112 21.392-14.262 21.393-14.262 57.997zm164.959 117.42q-17.114 5.23-43.261 9.508-25.67 4.278-54.193 4.278-29.474 0-52.768-9.032t-39.932-25.67q-16.163-17.115-25.196-40.884-8.557-24.244-8.557-54.194 0-29.474 7.131-53.243 7.606-24.244 21.868-41.358 14.261-17.114 34.703-26.146 20.441-9.508 47.063-9.508 18.065 0 31.851 4.278 13.786 4.279 23.769 9.508v-119.322l57.522-9.507v361.292zM15412.193-602.934v-359.39l57.521-9.508v123.124q9.508-3.327 21.868-5.704 12.835-2.377 25.195-2.377 29.95 0 49.44 8.557 19.967 8.081 31.851 23.294 11.885 14.737 16.639 35.654 5.229 20.916 5.229 46.587v139.763h-57.522v-130.73q0-19.967-2.852-33.753-2.377-14.261-8.557-22.818-5.705-9.033-15.688-12.836-9.983-4.278-24.72-4.278-11.409 0-23.294 2.377-11.884 2.377-17.589 4.278v197.76h-57.521zM15776.352-643.341q26.622 0 40.408-2.853v-63.701q-4.754-1.426-13.786-2.852-9.032-1.427-19.966-1.427-9.508 0-19.491 1.427-9.508 1.426-17.589 5.229-7.606 3.803-12.36 10.934-4.754 6.655-4.754 17.113 0 20.442 12.835 28.524 12.836 7.606 34.703 7.606zm-4.754-214.399q28.524 0 48.014 7.13 19.491 7.132 30.9 19.967 11.885 12.835 16.639 31.375 5.229 18.065 5.229 39.933v150.697q-13.311 2.852-40.408 6.655-26.621 4.279-60.374 4.279-22.343 0-40.883-4.279-18.54-4.278-31.85-13.786-12.836-9.508-20.442-24.72-7.131-15.212-7.131-37.555 0-21.393 8.082-36.13 8.557-14.737 22.818-23.769 14.262-9.508 32.802-13.31 19.015-4.28 39.457-4.28 9.507 0 19.966 1.427 10.458.95 22.343 3.803v-9.508q0-9.983-2.377-19.015t-8.557-15.688q-5.704-7.13-15.688-10.934-9.507-3.803-24.244-3.803-19.966 0-36.605 2.853-16.638 2.852-27.097 6.655l-7.13-46.588q10.933-3.803 31.85-7.606t44.686-3.803zM15942.358-843.478q16.639-4.754 43.26-9.033 26.622-4.278 58.948-4.278 30.424 0 50.866 8.557 20.442 8.081 32.326 23.294 12.36 14.737 17.114 36.129 5.229 20.917 5.229 46.112v139.763h-57.521v-130.73q0-19.967-2.853-33.753-2.377-14.261-8.557-22.818-5.704-9.033-16.163-12.836-9.983-4.278-24.72-4.278-10.933 0-22.818 1.426-11.885 1.426-17.589 2.377v200.612h-57.522v-240.544zM16308.375-643.341q26.621 0 40.407-2.853v-63.701q-4.753-1.426-13.786-2.852-9.032-1.427-19.966-1.427-9.508 0-19.491 1.427-9.507 1.426-17.589 5.229-7.606 3.803-12.36 10.934-4.754 6.655-4.754 17.113 0 20.442 12.836 28.524 12.835 7.606 34.703 7.606zm-4.754-214.399q28.523 0 48.014 7.13 19.491 7.132 30.9 19.967 11.884 12.835 16.638 31.375 5.23 18.065 5.23 39.933v150.697q-13.311 2.852-40.408 6.655-26.622 4.279-60.374 4.279-22.343 0-40.883-4.279-18.54-4.278-31.851-13.786-12.835-9.508-20.442-24.72-7.13-15.212-7.13-37.555 0-21.393 8.081-36.13 8.557-14.737 22.819-23.769 14.261-9.508 32.801-13.31 19.016-4.28 39.457-4.28 9.508 0 19.966 1.427 10.459.95 22.343 3.803v-9.508q0-9.983-2.376-19.015-2.377-9.032-8.557-15.688-5.705-7.13-15.688-10.934-9.508-3.803-24.245-3.803-19.966 0-36.604 2.853-16.639 2.852-27.097 6.655l-7.131-46.588q10.934-3.803 31.851-7.606t44.686-3.803z" transform="matrix(.04529 0 0 .0452 -654.3 97.323)"/></g><g style="font-style:normal;font-weight:400;font-size:253.58262634px;line-height:100%;font-family:sans-serif;text-align:center;letter-spacing:0;word-spacing:0;text-anchor:middle;fill:#e40001;fill-opacity:1;stroke:none;stroke-width:1px;stroke-linecap:butt;stroke-linejoin:miter;stroke-opacity:1"><path style="font-style:normal;font-variant:normal;font-weight:400;font-stretch:normal;line-height:100%;font-family:Ubuntu;-inkscape-font-specification:Ubuntu;text-align:center;text-anchor:middle;fill:#e40001;fill-opacity:1" d="M15828.784-382.022q0 6.846-4.565 11.918-4.564 5.072-12.425 5.072-7.862 0-12.426-5.072-4.565-5.072-4.565-11.918 0-6.847 4.565-11.919 4.564-5.071 12.426-5.071 7.861 0 12.425 5.071 4.565 5.072 4.565 11.919zM15954.838-434.007q0-23.076-11.411-35.501-11.412-12.426-30.43-12.426-10.651 0-16.737.76-5.832.762-9.382 1.776v83.175q4.311 3.55 12.425 6.847 8.115 3.296 17.751 3.296 10.143 0 17.244-3.55 7.354-3.804 11.918-10.143 4.565-6.593 6.593-15.215 2.029-8.875 2.029-19.019zm24.597 0q0 14.962-4.057 27.64-3.804 12.68-11.411 21.809-7.608 9.129-18.765 14.2-10.904 5.072-25.105 5.072-11.411 0-20.287-3.043-8.621-3.043-12.932-5.832v52.745h-23.583v-174.719q8.368-2.028 20.793-4.31 12.679-2.536 29.162-2.536 15.215 0 27.387 4.818t20.794 13.693q8.622 8.876 13.186 21.808 4.818 12.68 4.818 28.655zM16061.557-502.981q3.043 0 6.846.507 4.058.254 7.861 1.014 3.804.507 6.847 1.268 3.297.507 4.818 1.015l-4.057 20.54q-2.79-1.015-9.383-2.283-6.339-1.521-16.483-1.521-6.593 0-13.186 1.521-6.339 1.268-8.368 1.776v110.815h-23.583v-126.284q8.368-3.043 20.793-5.579 12.426-2.79 27.895-2.79zM16227.328-434.26q0 15.722-4.564 28.4-4.565 12.68-12.933 21.809-8.115 9.129-19.526 14.2-11.411 4.819-24.851 4.819t-24.851-4.818q-11.411-5.072-19.779-14.201-8.115-9.129-12.68-21.808-4.564-12.68-4.564-28.401 0-15.469 4.564-28.148 4.565-12.933 12.68-22.062 8.368-9.129 19.779-13.947 11.411-5.071 24.851-5.071t24.851 5.071q11.411 4.818 19.526 13.947 8.368 9.13 12.933 22.062 4.564 12.68 4.564 28.148zm-24.597 0q0-22.316-10.144-35.248-9.889-13.187-27.133-13.187t-27.387 13.187q-9.89 12.932-9.89 35.248 0 22.315 9.89 35.501 10.143 12.933 27.387 12.933t27.133-12.933q10.144-13.186 10.144-35.501z" transform="matrix(.04525 0 0 .04525 -654.3 97.323)"/></g><g style="font-style:normal;font-weight:400;font-size:475.38482666px;line-height:100%;font-family:sans-serif;text-align:center;letter-spacing:0;word-spacing:0;text-anchor:middle;fill:#e40001;fill-opacity:1;stroke:none;stroke-width:1px;stroke-linecap:butt;stroke-linejoin:miter;stroke-opacity:1"><path style="font-style:normal;font-variant:normal;font-weight:500;font-stretch:normal;line-height:100%;font-family:Ubuntu;-inkscape-font-specification:'Ubuntu Medium';text-align:center;text-anchor:middle;fill:#e40001;fill-opacity:1" d="M15646.392-990.218q22.818 0 33.277-5.229 10.458-5.704 10.458-19.015 0-12.36-11.409-20.442-10.934-8.081-36.605-17.589-15.688-5.705-28.998-11.885-12.836-6.655-22.343-15.212-9.508-8.557-15.213-20.441-5.229-12.36-5.229-29.95 0-34.227 25.195-53.718 25.196-19.966 68.456-19.966 21.868 0 41.834 4.278 19.966 3.803 29.949 7.606l-10.458 46.588q-9.508-4.279-24.245-7.606-14.737-3.803-34.228-3.803-17.589 0-28.523 6.18-10.934 5.704-10.934 18.064 0 6.18 1.902 10.934 2.377 4.754 7.606 9.032 5.229 3.804 13.786 8.082 8.557 3.803 20.917 8.082 20.442 7.606 34.703 15.212 14.262 7.13 23.294 16.638 9.508 9.033 13.786 20.917 4.279 11.885 4.279 28.523 0 35.654-26.622 54.194-26.146 18.065-75.111 18.065-32.801 0-52.767-5.705-19.967-5.229-28.048-8.557l9.983-48.014q12.835 5.23 30.425 9.984 18.064 4.753 40.883 4.753zM15888.853-989.267q26.621 0 40.407-2.852v-63.702q-4.753-1.426-13.786-2.852-9.032-1.426-19.966-1.426-9.508 0-19.491 1.426-9.507 1.426-17.589 5.23-7.606 3.802-12.36 10.933-4.754 6.655-4.754 17.114 0 20.442 12.836 28.523 12.835 7.606 34.703 7.606zm-4.754-214.398q28.523 0 48.014 7.13 19.491 7.131 30.9 19.967 11.884 12.835 16.638 31.375 5.23 18.065 5.23 39.932v150.697q-13.311 2.853-40.408 6.656-26.622 4.278-60.374 4.278-22.343 0-40.883-4.278-18.54-4.279-31.851-13.786-12.835-9.508-20.442-24.72-7.13-15.213-7.13-37.556 0-21.392 8.081-36.13 8.557-14.736 22.819-23.768 14.261-9.508 32.801-13.311 19.016-4.279 39.457-4.279 9.508 0 19.966 1.427 10.459.95 22.343 3.803v-9.508q0-9.983-2.376-19.015-2.377-9.033-8.557-15.688-5.705-7.13-15.688-10.934-9.508-3.803-24.245-3.803-19.966 0-36.604 2.852-16.639 2.852-27.097 6.656l-7.131-46.588q10.934-3.803 31.851-7.606t44.686-3.803z" transform="matrix(.04529 0 0 .0452 -654.3 97.323)"/></g><path transform="matrix(-.04987 .01112 -.01112 -.04987 1215.138 485.11)" d="m19248.773 13676.428-133.672 258.372-156.92-244.949z" style="opacity:1;fill:#2c2545;fill-opacity:1;stroke:none;stroke-width:26.39999962;stroke-linecap:round;stroke-miterlimit:4;stroke-dasharray:none;stroke-dashoffset:0;stroke-opacity:1"/><g transform="matrix(.001 .0033 -.0033 .001 85.99 -18.937)" style="fill:#2c2545;fill-opacity:1"><path d="M17483.557-1524.16A1548.822 1548.822 0 0 1 15934.735 24.663a1548.822 1548.822 0 0 1-1548.821-1548.821 1548.822 1548.822 0 0 1 1548.821-1548.822 1548.822 1548.822 0 0 1 1548.822 1548.822z" style="opacity:1;fill:#2c2545;fill-opacity:1;stroke:none;stroke-width:22.71917152;stroke-linecap:round;stroke-miterlimit:4;stroke-dasharray:none;stroke-dashoffset:0;stroke-opacity:1"/><path d="M17483.557-1524.16A1548.822 1548.822 0 0 1 15934.735 24.663a1548.822 1548.822 0 0 1-1548.821-1548.821 1548.822 1548.822 0 0 1 1548.821-1548.822 1548.822 1548.822 0 0 1 1548.822 1548.822z" style="opacity:1;fill:#2c2545;fill-opacity:1;stroke:none;stroke-width:22.71917152;stroke-linecap:round;stroke-miterlimit:4;stroke-dasharray:none;stroke-dashoffset:0;stroke-opacity:1"/><path d="M20316.075-6856.248a1548.822 1548.822 0 0 1-1548.821 1548.822 1548.822 1548.822 0 0 1-1548.822-1548.822 1548.822 1548.822 0 0 1 1548.822-1548.821 1548.822 1548.822 0 0 1 1548.821 1548.821z" style="opacity:1;fill:#2c2545;fill-opacity:1;stroke:none;stroke-width:22.71917152;stroke-linecap:round;stroke-miterlimit:4;stroke-dasharray:none;stroke-dashoffset:0;stroke-opacity:1" transform="rotate(14.4)"/><path d="M21733.568-12725.237a1548.822 1548.822 0 0 1-1548.822 1548.821 1548.822 1548.822 0 0 1-1548.821-1548.821 1548.822 1548.822 0 0 1 1548.821-1548.822 1548.822 1548.822 0 0 1 1548.822 1548.822z" style="opacity:1;fill:#2c2545;fill-opacity:1;stroke:none;stroke-width:22.71917152;stroke-linecap:round;stroke-miterlimit:4;stroke-dasharray:none;stroke-dashoffset:0;stroke-opacity:1" transform="rotate(28.8)"/><path d="M21646.968-18762.357a1548.822 1548.822 0 0 1-1548.822 1548.821 1548.822 1548.822 0 0 1-1548.821-1548.821 1548.822 1548.822 0 0 1 1548.821-1548.822 1548.822 1548.822 0 0 1 1548.822 1548.822z" style="opacity:1;fill:#2c2545;fill-opacity:1;stroke:none;stroke-width:22.71917152;stroke-linecap:round;stroke-miterlimit:4;stroke-dasharray:none;stroke-dashoffset:0;stroke-opacity:1" transform="rotate(43.2)"/><path d="M20061.72-24588.275a1548.822 1548.822 0 0 1-1548.822 1548.821 1548.822 1548.822 0 0 1-1548.821-1548.821 1548.822 1548.822 0 0 1 1548.821-1548.822 1548.822 1548.822 0 0 1 1548.822 1548.822z" style="opacity:1;fill:#2c2545;fill-opacity:1;stroke:none;stroke-width:22.71917152;stroke-linecap:round;stroke-miterlimit:4;stroke-dasharray:none;stroke-dashoffset:0;stroke-opacity:1" transform="rotate(57.6)"/><path d="M17077.428-29836.926a1548.822 1548.822 0 0 1-1548.822 1548.822 1548.822 1548.822 0 0 1-1548.821-1548.822 1548.822 1548.822 0 0 1 1548.821-1548.821 1548.822 1548.822 0 0 1 1548.822 1548.821z" style="opacity:1;fill:#2c2545;fill-opacity:1;stroke:none;stroke-width:22.71917152;stroke-linecap:round;stroke-miterlimit:4;stroke-dasharray:none;stroke-dashoffset:0;stroke-opacity:1" transform="rotate(72)"/><path d="M12881.607-34178.516a1548.822 1548.822 0 0 1-1548.822 1548.822 1548.822 1548.822 0 0 1-1548.821-1548.822 1548.822 1548.822 0 0 1 1548.821-1548.821 1548.822 1548.822 0 0 1 1548.822 1548.821z" style="opacity:1;fill:#2c2545;fill-opacity:1;stroke:none;stroke-width:22.71917152;stroke-linecap:round;stroke-miterlimit:4;stroke-dasharray:none;stroke-dashoffset:0;stroke-opacity:1" transform="rotate(86.4)"/><path d="M7737.895-37340.25a1548.822 1548.822 0 0 1-1548.822 1548.822 1548.822 1548.822 0 0 1-1548.821-1548.822 1548.822 1548.822 0 0 1 1548.821-1548.822 1548.822 1548.822 0 0 1 1548.822 1548.822z" style="opacity:1;fill:#2c2545;fill-opacity:1;stroke:none;stroke-width:22.71917152;stroke-linecap:round;stroke-miterlimit:4;stroke-dasharray:none;stroke-dashoffset:0;stroke-opacity:1" transform="rotate(100.8)"/><path d="M1969.49-39123.461a1548.822 1548.822 0 0 1-1548.82 1548.822 1548.822 1548.822 0 0 1-1548.822-1548.822 1548.822 1548.822 0 0 1 1548.821-1548.821 1548.822 1548.822 0 0 1 1548.822 1548.821z" style="opacity:1;fill:#2c2545;fill-opacity:1;stroke:none;stroke-width:22.71917152;stroke-linecap:round;stroke-miterlimit:4;stroke-dasharray:none;stroke-dashoffset:0;stroke-opacity:1" transform="rotate(115.2)"/><path d="M-4061.155-39416.109a1548.822 1548.822 0 0 1-1548.822 1548.821 1548.822 1548.822 0 0 1-1548.821-1548.821 1548.822 1548.822 0 0 1 1548.821-1548.822 1548.822 1548.822 0 0 1 1548.822 1548.822z" style="opacity:1;fill:#2c2545;fill-opacity:1;stroke:none;stroke-width:22.71917152;stroke-linecap:round;stroke-miterlimit:4;stroke-dasharray:none;stroke-dashoffset:0;stroke-opacity:1" transform="rotate(129.6)"/><path d="M-9975.115-38199.801a1548.822 1548.822 0 0 1-1548.822 1548.822 1548.822 1548.822 0 0 1-1548.821-1548.822 1548.822 1548.822 0 0 1 1548.821-1548.821 1548.822 1548.822 0 0 1 1548.822 1548.821z" style="opacity:1;fill:#2c2545;fill-opacity:1;stroke:none;stroke-width:22.71917152;stroke-linecap:round;stroke-miterlimit:4;stroke-dasharray:none;stroke-dashoffset:0;stroke-opacity:1" transform="rotate(144)"/><path d="M-15400.794-35550.961a1548.822 1548.822 0 0 1-1548.821 1548.822 1548.822 1548.822 0 0 1-1548.822-1548.822 1548.822 1548.822 0 0 1 1548.822-1548.821 1548.822 1548.822 0 0 1 1548.821 1548.821z" style="opacity:1;fill:#2c2545;fill-opacity:1;stroke:none;stroke-width:22.71917152;stroke-linecap:round;stroke-miterlimit:4;stroke-dasharray:none;stroke-dashoffset:0;stroke-opacity:1" transform="rotate(158.4)"/><path d="M-19997.274-31636.031a1548.822 1548.822 0 0 1-1548.822 1548.821 1548.822 1548.822 0 0 1-1548.821-1548.821 1548.822 1548.822 0 0 1 1548.821-1548.822 1548.822 1548.822 0 0 1 1548.822 1548.822z" style="opacity:1;fill:#2c2545;fill-opacity:1;stroke:none;stroke-width:22.71917152;stroke-linecap:round;stroke-miterlimit:4;stroke-dasharray:none;stroke-dashoffset:0;stroke-opacity:1" transform="rotate(172.8)"/><path d="M-23475.745-26700.996a1548.822 1548.822 0 0 1-1548.821 1548.821 1548.822 1548.822 0 0 1-1548.822-1548.821 1548.822 1548.822 0 0 1 1548.822-1548.822 1548.822 1548.822 0 0 1 1548.821 1548.822z" style="opacity:1;fill:#2c2545;fill-opacity:1;stroke:none;stroke-width:22.71917152;stroke-linecap:round;stroke-miterlimit:4;stroke-dasharray:none;stroke-dashoffset:0;stroke-opacity:1" transform="rotate(-172.8)"/><path d="M-25617.639-21055.943a1548.822 1548.822 0 0 1-1548.822 1548.821 1548.822 1548.822 0 0 1-1548.821-1548.821 1548.822 1548.822 0 0 1 1548.821-1548.822 1548.822 1548.822 0 0 1 1548.822 1548.822z" style="opacity:1;fill:#2c2545;fill-opacity:1;stroke:none;stroke-width:22.71917152;stroke-linecap:round;stroke-miterlimit:4;stroke-dasharray:none;stroke-dashoffset:0;stroke-opacity:1" transform="rotate(-158.4)"/><path d="M-26288.376-15055.573a1548.822 1548.822 0 0 1-1548.821 1548.821 1548.822 1548.822 0 0 1-1548.822-1548.821 1548.822 1548.822 0 0 1 1548.822-1548.822 1548.822 1548.822 0 0 1 1548.821 1548.822z" style="opacity:1;fill:#2c2545;fill-opacity:1;stroke:none;stroke-width:22.71917152;stroke-linecap:round;stroke-miterlimit:4;stroke-dasharray:none;stroke-dashoffset:0;stroke-opacity:1" transform="rotate(-144)"/><path d="M-25445.809-9076.911a1548.822 1548.822 0 0 1-1548.822 1548.821 1548.822 1548.822 0 0 1-1548.821-1548.821 1548.822 1548.822 0 0 1 1548.821-1548.822 1548.822 1548.822 0 0 1 1548.822 1548.822z" style="opacity:1;fill:#2c2545;fill-opacity:1;stroke:none;stroke-width:22.71917152;stroke-linecap:round;stroke-miterlimit:4;stroke-dasharray:none;stroke-dashoffset:0;stroke-opacity:1" transform="rotate(-129.6)"/><path d="M-23142.878-3495.617a1548.822 1548.822 0 0 1-1548.821 1548.821 1548.822 1548.822 0 0 1-1548.822-1548.821 1548.822 1548.822 0 0 1 1548.822-1548.822 1548.822 1548.822 0 0 1 1548.821 1548.822z" style="opacity:1;fill:#2c2545;fill-opacity:1;stroke:none;stroke-width:22.71917152;stroke-linecap:round;stroke-miterlimit:4;stroke-dasharray:none;stroke-dashoffset:0;stroke-opacity:1" transform="rotate(-115.2)"/><path d="M-19524.288 1337.615a1548.822 1548.822 0 0 1-1548.821 1548.821 1548.822 1548.822 0 0 1-1548.822-1548.821 1548.822 1548.822 0 0 1 1548.822-1548.822 1548.822 1548.822 0 0 1 1548.821 1548.822z" style="opacity:1;fill:#2c2545;fill-opacity:1;stroke:none;stroke-width:22.71917152;stroke-linecap:round;stroke-miterlimit:4;stroke-dasharray:none;stroke-dashoffset:0;stroke-opacity:1" transform="rotate(-100.8)"/><use xlink:href="#path4361-3" transform="rotate(-86.4 19687.655 13876.89)" width="100%" height="100%" style="fill:#2c2545;fill-opacity:1;stroke:none"/><path d="M-9317.984 7611.219a1548.822 1548.822 0 0 1-1548.822 1548.821 1548.822 1548.822 0 0 1-1548.821-1548.821 1548.822 1548.822 0 0 1 1548.821-1548.822A1548.822 1548.822 0 0 1-9317.984 7611.22z" style="opacity:1;fill:#2c2545;fill-opacity:1;stroke:none;stroke-width:22.71917152;stroke-linecap:round;stroke-miterlimit:4;stroke-dasharray:none;stroke-dashoffset:0;stroke-opacity:1" transform="rotate(-72)"/><path d="M-3371.57 8657.397a1548.822 1548.822 0 0 1-1548.822 1548.822 1548.822 1548.822 0 0 1-1548.821-1548.822 1548.822 1548.822 0 0 1 1548.821-1548.821A1548.822 1548.822 0 0 1-3371.57 8657.397Z" style="opacity:1;fill:#2c2545;fill-opacity:1;stroke:none;stroke-width:22.71917152;stroke-linecap:round;stroke-miterlimit:4;stroke-dasharray:none;stroke-dashoffset:0;stroke-opacity:1" transform="rotate(-57.6)"/><path d="M2648.2 8191.895a1548.822 1548.822 0 0 1-1548.82 1548.822A1548.822 1548.822 0 0 1-449.443 8191.895a1548.822 1548.822 0 0 1 1548.821-1548.821 1548.822 1548.822 0 0 1 1548.822 1548.822Z" style="opacity:1;fill:#2c2545;fill-opacity:1;stroke:none;stroke-width:22.71917152;stroke-linecap:round;stroke-miterlimit:4;stroke-dasharray:none;stroke-dashoffset:0;stroke-opacity:1" transform="rotate(-43.2)"/><path d="M8363.083 6243.963A1548.822 1548.822 0 0 1 6814.26 7792.784 1548.822 1548.822 0 0 1 5265.44 6243.963 1548.822 1548.822 0 0 1 6814.26 4695.14a1548.822 1548.822 0 0 1 1548.822 1548.822Z" style="opacity:1;fill:#2c2545;fill-opacity:1;stroke:none;stroke-width:22.71917152;stroke-linecap:round;stroke-miterlimit:4;stroke-dasharray:none;stroke-dashoffset:0;stroke-opacity:1" transform="rotate(-28.8)"/><path d="M13413.991 2935.994a1548.822 1548.822 0 0 1-1548.821 1548.821 1548.822 1548.822 0 0 1-1548.822-1548.821 1548.822 1548.822 0 0 1 1548.822-1548.822 1548.822 1548.822 0 0 1 1548.821 1548.822Z" style="opacity:1;fill:#2c2545;fill-opacity:1;stroke:none;stroke-width:22.71917152;stroke-linecap:round;stroke-miterlimit:4;stroke-dasharray:none;stroke-dashoffset:0;stroke-opacity:1" transform="rotate(-14.4)"/><path d="M-14817.406 5119.095a1548.822 1548.822 0 0 1-1548.822 1548.821 1548.822 1548.822 0 0 1-1548.821-1548.821 1548.822 1548.822 0 0 1 1548.821-1548.822 1548.822 1548.822 0 0 1 1548.822 1548.822z" style="opacity:1;fill:#2c2545;fill-opacity:1;stroke:none;stroke-width:22.71917152;stroke-linecap:round;stroke-miterlimit:4;stroke-dasharray:none;stroke-dashoffset:0;stroke-opacity:1" transform="rotate(-86.4)"/></g></svg>