<!-- icon666.com - MILLIONS vector ICONS FREE --><svg viewBox="0 0 32 32" xmlns="http://www.w3.org/2000/svg"><g id="link"><rect fill="#ff6b6b" height="28.8" rx="2.64" width="28.8" x="1.6" y="1.6"></rect><g fill="#fff" fill-rule="evenodd"><path d="m19.672 16.941 4.106-4.106a3.3 3.3 0 1 0 -4.672-4.671l-4.106 4.105a3.3 3.3 0 0 0 0 4.671.4.4 0 1 0 .565-.566 2.5 2.5 0 0 1 0-3.54l4.106-4.106a2.5 2.5 0 1 1 3.54 3.54l-4.106 4.106a.4.4 0 1 0 .566.566z"></path><path d="m12.328 14.942-4.106 4.106a3.3 3.3 0 1 0 4.672 4.671l4.106-4.106a3.3 3.3 0 0 0 0-4.671.4.4 0 0 0 -.565.566 2.5 2.5 0 0 1 0 3.54l-4.106 4.106a2.5 2.5 0 0 1 -3.54-3.54l4.106-4.106a.4.4 0 1 0 -.566-.566z"></path></g></g></svg>