<!-- icon666.com - MILLIONS vector ICONS FREE --><svg clip-rule="evenodd" fill-rule="evenodd" image-rendering="optimizeQuality" shape-rendering="geometricPrecision" text-rendering="geometricPrecision" viewBox="0 0 1707 1707" xmlns="http://www.w3.org/2000/svg" xmlns:xlink="http://www.w3.org/1999/xlink"><linearGradient id="id0" gradientUnits="userSpaceOnUse" x1="853.331" x2="853.331" y1="0" y2="1706.66"><stop offset="0" stop-color="#66c"></stop><stop offset=".509804" stop-color="#f0f"></stop><stop offset="1" stop-color="#f60"></stop></linearGradient><g id="Layer_x0020_1"><path d="m272 0h1162c150 0 273 123 273 272v1162c0 150-123 273-273 273h-1162c-149 0-272-123-272-273v-1162c0-149 123-272 272-272zm295 510c-37-37-94 20-57 57l195 194c-50 42-124 39-171-7l-211-212c-49-48-49-129 0-178 40-40 68-78 130-78 33 0 65 13 89 37l212 211c46 47 49 121 7 171zm194 308 128 127c-73 81-70 206 7 284l212 211c80 80 211 80 291 0 55-55 101-96 101-187 0-52-20-105-60-145l-211-212c-78-77-203-80-284-7l-127-128c73-81 70-206-8-283l-211-211c-80-81-211-81-291 0-56 55-102 95-102 186 0 53 20 106 61 146l211 211c77 78 202 81 283 8zm184 184 195 194c37 38 94-19 56-56l-194-195c50-41 124-38 170 8l212 211c49 49 49 130 0 178-41 41-68 78-131 78-32 0-64-12-89-36l-211-212c-46-46-49-120-8-170zm489-922h-1162c-105 0-192 87-192 192v1162c0 106 87 193 192 193h1162c106 0 193-87 193-193v-1162c0-105-87-192-193-192z" fill="url(#id0)" fill-rule="nonzero"></path></g></svg>